<svg xmlns="http://www.w3.org/2000/svg" width="24" height="24" viewBox="0 0 24 24">
  <path d="M13,21 L14.5,21 C14.7761424,21 15,21.2238576 15,21.5 C15,21.7761424 14.7761424,22 14.5,22 L12.5835114,22 C12.5563546,22.0045662 12.5284549,22.0069431 12.5,22.0069431 C12.4715451,22.0069431 12.4436454,22.0045662 12.4164886,22 L10.5,22 C10.2238576,22 10,21.7761424 10,21.5 C10,21.2238576 10.2238576,21 10.5,21 L12,21 L12,13 L4,13 L4,14.5 C4,14.7761424 3.77614237,15 3.5,15 C3.22385763,15 3,14.7761424 3,14.5 L3,10.5 C3,10.2238576 3.22385763,10 3.5,10 C3.77614237,10 4,10.2238576 4,10.5 L4,12 L12,12 L12,4 L10.5,4 C10.2238576,4 10,3.77614237 10,3.5 C10,3.22385763 10.2238576,3 10.5,3 L14.5,3 C14.7761424,3 15,3.22385763 15,3.5 C15,3.77614237 14.7761424,4 14.5,4 L13,4 L13,12 L21,12 L21,10.5 C21,10.2238576 21.2238576,10 21.5,10 C21.7761424,10 22,10.2238576 22,10.5 L22,12.4164886 C22.0045662,12.4436454 22.0069431,12.4715451 22.0069431,12.5 C22.0069431,12.5284549 22.0045662,12.5563546 22,12.5835114 L22,14.5 C22,14.7761424 21.7761424,15 21.5,15 C21.2238576,15 21,14.7761424 21,14.5 L21,13 L13,13 L13,21 Z M19.5,22 C19.2238576,22 19,21.7761424 19,21.5 C19,21.2238576 19.2238576,21 19.5,21 C20.3284271,21 21,20.3284271 21,19.5 C21,19.2238576 21.2238576,19 21.5,19 C21.7761424,19 22,19.2238576 22,19.5 C22,20.8807119 20.8807119,22 19.5,22 Z M5.5,21 C5.77614237,21 6,21.2238576 6,21.5 C6,21.7761424 5.77614237,22 5.5,22 C4.11928813,22 3,20.8807119 3,19.5 L3,19.4384472 C3,19.1623048 3.22385763,18.9384472 3.5,18.9384472 C3.77614237,18.9384472 4,19.1623048 4,19.4384472 L4,19.5 C4,20.3284271 4.67157288,21 5.5,21 Z M4,5.5 C4,5.77614237 3.77614237,6 3.5,6 C3.22385763,6 3,5.77614237 3,5.5 C3,4.11928813 4.11928813,3 5.5,3 C5.77614237,3 6,3.22385763 6,3.5 C6,3.77614237 5.77614237,4 5.5,4 C4.67157288,4 4,4.67157288 4,5.5 Z M7.5,4 C7.22385763,4 7,3.77614237 7,3.5 C7,3.22385763 7.22385763,3 7.5,3 L8.5,3 C8.77614237,3 9,3.22385763 9,3.5 C9,3.77614237 8.77614237,4 8.5,4 L7.5,4 Z M16.5,4 C16.2238576,4 16,3.77614237 16,3.5 C16,3.22385763 16.2238576,3 16.5,3 L17.5,3 C17.7761424,3 18,3.22385763 18,3.5 C18,3.77614237 17.7761424,4 17.5,4 L16.5,4 Z M19.5,4 C19.2238576,4 19,3.77614237 19,3.5 C19,3.22385763 19.2238576,3 19.5,3 C20.8807119,3 22,4.11928813 22,5.5 C22,5.77614237 21.7761424,6 21.5,6 C21.2238576,6 21,5.77614237 21,5.5 C21,4.67157288 20.3284271,4 19.5,4 Z M21,7.5 C21,7.22385763 21.2238576,7 21.5,7 C21.7761424,7 22,7.22385763 22,7.5 L22,8.5 C22,8.77614237 21.7761424,9 21.5,9 C21.2238576,9 21,8.77614237 21,8.5 L21,7.5 Z M21,16.5 C21,16.2238576 21.2238576,16 21.5,16 C21.7761424,16 22,16.2238576 22,16.5 L22,17.5 C22,17.7761424 21.7761424,18 21.5,18 C21.2238576,18 21,17.7761424 21,17.5 L21,16.5 Z M3,7.5 C3,7.22385763 3.22385763,7 3.5,7 C3.77614237,7 4,7.22385763 4,7.5 L4,8.5 C4,8.77614237 3.77614237,9 3.5,9 C3.22385763,9 3,8.77614237 3,8.5 L3,7.5 Z M3,16.5 C3,16.2238576 3.22385763,16 3.5,16 C3.77614237,16 4,16.2238576 4,16.5 L4,17.5 C4,17.7761424 3.77614237,18 3.5,18 C3.22385763,18 3,17.7761424 3,17.5 L3,16.5 Z M7.5,22 C7.22385763,22 7,21.7761424 7,21.5 C7,21.2238576 7.22385763,21 7.5,21 L8.5,21 C8.77614237,21 9,21.2238576 9,21.5 C9,21.7761424 8.77614237,22 8.5,22 L7.5,22 Z M16.5,22 C16.2238576,22 16,21.7761424 16,21.5 C16,21.2238576 16.2238576,21 16.5,21 L17.5,21 C17.7761424,21 18,21.2238576 18,21.5 C18,21.7761424 17.7761424,22 17.5,22 L16.5,22 Z"/>
</svg>
